<svg width="25" height="25" viewBox="0 0 25 25" fill="none" xmlns="http://www.w3.org/2000/svg">
<path d="M18.7498 6.24992H16.6665C16.6665 3.94784 14.8019 2.08325 12.4998 2.08325C10.1978 2.08325 8.33317 3.94784 8.33317 6.24992H6.24984C5.104 6.24992 4.1665 7.18742 4.1665 8.33325V20.8333C4.1665 21.9791 5.104 22.9166 6.24984 22.9166H18.7498C19.8957 22.9166 20.8332 21.9791 20.8332 20.8333V8.33325C20.8332 7.18742 19.8957 6.24992 18.7498 6.24992ZM12.4998 4.16659C13.6457 4.16659 14.5832 5.10409 14.5832 6.24992H10.4165C10.4165 5.10409 11.354 4.16659 12.4998 4.16659ZM18.7498 20.8333H6.24984V8.33325H8.33317V10.4166C8.33317 10.9895 8.80192 11.4583 9.37484 11.4583C9.94775 11.4583 10.4165 10.9895 10.4165 10.4166V8.33325H14.5832V10.4166C14.5832 10.9895 15.0519 11.4583 15.6248 11.4583C16.1978 11.4583 16.6665 10.9895 16.6665 10.4166V8.33325H18.7498V20.8333Z" fill="#F4F4FA"/>
</svg>
