<svg width="25" height="25" viewBox="0 0 25 25" fill="none" xmlns="http://www.w3.org/2000/svg">
<path d="M8.12516 2.08337H16.8752C20.2085 2.08337 22.9168 4.79171 22.9168 8.12504V16.875C22.9168 18.4774 22.2803 20.0141 21.1473 21.1471C20.0142 22.2802 18.4775 22.9167 16.8752 22.9167H8.12516C4.79183 22.9167 2.0835 20.2084 2.0835 16.875V8.12504C2.0835 6.52269 2.72003 4.98597 3.85306 3.85294C4.98609 2.71991 6.52281 2.08337 8.12516 2.08337ZM7.91683 4.16671C6.92227 4.16671 5.96844 4.5618 5.26518 5.26506C4.56192 5.96832 4.16683 6.92215 4.16683 7.91671V17.0834C4.16683 19.1563 5.84391 20.8334 7.91683 20.8334H17.0835C18.0781 20.8334 19.0319 20.4383 19.7351 19.735C20.4384 19.0318 20.8335 18.0779 20.8335 17.0834V7.91671C20.8335 5.84379 19.1564 4.16671 17.0835 4.16671H7.91683ZM17.9689 5.72921C18.3142 5.72921 18.6454 5.86639 18.8896 6.11058C19.1338 6.35477 19.271 6.68596 19.271 7.03129C19.271 7.37663 19.1338 7.70782 18.8896 7.952C18.6454 8.19619 18.3142 8.33337 17.9689 8.33337C17.6236 8.33337 17.2924 8.19619 17.0482 7.952C16.804 7.70782 16.6668 7.37663 16.6668 7.03129C16.6668 6.68596 16.804 6.35477 17.0482 6.11058C17.2924 5.86639 17.6236 5.72921 17.9689 5.72921ZM12.5002 7.29171C13.8815 7.29171 15.2063 7.84044 16.183 8.81719C17.1598 9.79395 17.7085 11.1187 17.7085 12.5C17.7085 13.8814 17.1598 15.2061 16.183 16.1829C15.2063 17.1596 13.8815 17.7084 12.5002 17.7084C11.1188 17.7084 9.79407 17.1596 8.81732 16.1829C7.84056 15.2061 7.29183 13.8814 7.29183 12.5C7.29183 11.1187 7.84056 9.79395 8.81732 8.81719C9.79407 7.84044 11.1188 7.29171 12.5002 7.29171ZM12.5002 9.37504C11.6714 9.37504 10.8765 9.70428 10.2905 10.2903C9.7044 10.8764 9.37516 11.6712 9.37516 12.5C9.37516 13.3288 9.7044 14.1237 10.2905 14.7098C10.8765 15.2958 11.6714 15.625 12.5002 15.625C13.329 15.625 14.1238 15.2958 14.7099 14.7098C15.2959 14.1237 15.6252 13.3288 15.6252 12.5C15.6252 11.6712 15.2959 10.8764 14.7099 10.2903C14.1238 9.70428 13.329 9.37504 12.5002 9.37504Z" fill="#F4F4FA"/>
</svg>
