<svg width="268" height="44" viewBox="0 0 268 44" fill="none" xmlns="http://www.w3.org/2000/svg">
<path d="M8.21249 18.7362C7.65821 17.9909 7.18252 17.2785 6.6179 16.64C6.45658 16.4573 6.03674 16.4204 5.74719 16.445C2.04717 16.755 -0.771786 13.5297 0.189929 10.0621C0.860026 7.6498 3.10609 6.19419 5.78028 6.3646C6.12153 6.38718 6.62618 6.15108 6.81645 5.87392C10.9839 -0.213339 19.7427 -0.367316 23.9722 5.67272C24.6133 6.58838 25.3786 6.46314 26.0735 6.42208C28.7725 6.25989 31.3784 9.25322 30.9544 11.8832C30.8324 12.6448 30.5698 13.4619 30.123 14.0779C29.5998 14.8026 28.8966 15.517 28.1065 15.8968C27.3206 16.2746 26.3279 16.3321 25.4261 16.3362C24.8326 16.3362 24.4748 16.4306 24.1563 16.9336C23.7757 17.5352 23.3042 18.0813 22.9877 18.496C24.2204 19.9824 25.5875 21.3046 26.5595 22.869C28.8407 26.5377 29 30.3728 27.2503 34.3886C26.2493 36.6859 24.7312 38.4248 22.723 39.8045C22.4045 40.0242 21.6992 40.1391 21.4697 39.9502C20.9112 39.4883 21.4469 39.0757 21.784 38.6876C24.8015 35.22 26.0693 31.3419 24.1873 26.9381C21.9474 21.6967 14.9879 19.4958 10.5206 22.9162C8.20008 24.6921 7.04809 27.0613 7.30455 29.9745C7.54446 32.6989 9.04597 34.6165 11.5609 35.6881C15.7097 37.4579 20.2536 34.7355 20.3425 30.4652C20.3652 29.3443 19.7034 28.5477 18.69 28.4779C17.7634 28.4142 16.9631 29.1164 16.7976 30.1429C16.4832 32.0871 15.7924 32.896 14.3323 33.0315C12.6467 33.1896 10.9425 32.1076 10.3572 30.5104C9.16179 27.2481 11.9932 23.6265 15.7449 23.6183C20.7417 23.6081 24.2659 28.2849 23.0229 33.2984C22.1211 36.9405 19.7861 39.2933 16.2164 40.3465C12.3489 41.488 8.97565 40.328 6.18565 37.6077C0.975847 32.5285 1.51358 24.1788 7.25905 19.4938C7.57341 19.2392 7.89191 18.9887 8.21042 18.7362H8.21249Z" fill="#F4D5D8"/>
<path d="M42.0859 40.14C41.4885 40.14 40.9239 40.0513 40.3919 39.874C39.8692 39.6873 39.4119 39.4307 39.0199 39.104C38.6279 38.7773 38.3385 38.3947 38.1519 37.956C38.0585 37.7787 38.0539 37.6153 38.1379 37.466C38.2312 37.3167 38.3805 37.2187 38.5859 37.172C38.7445 37.1347 38.8985 37.158 39.0479 37.242C39.1972 37.3167 39.3092 37.4333 39.3839 37.592C39.5052 37.844 39.6965 38.0727 39.9579 38.278C40.2192 38.474 40.5319 38.6327 40.8959 38.754C41.2692 38.8753 41.6659 38.936 42.0859 38.936C42.5525 38.936 42.9725 38.8613 43.3459 38.712C43.7285 38.5627 44.0319 38.348 44.2559 38.068C44.4892 37.7787 44.6059 37.4287 44.6059 37.018C44.6059 36.4953 44.4052 36.0333 44.0039 35.632C43.6025 35.2307 42.9585 34.9787 42.0719 34.876C40.9425 34.7547 40.0559 34.414 39.4119 33.854C38.7679 33.294 38.4459 32.6033 38.4459 31.782C38.4459 31.1847 38.6092 30.676 38.9359 30.256C39.2625 29.8267 39.7105 29.5 40.2799 29.276C40.8492 29.052 41.4932 28.94 42.2119 28.94C42.7532 28.94 43.2339 29.0193 43.6539 29.178C44.0832 29.3367 44.4519 29.556 44.7599 29.836C45.0772 30.1067 45.3479 30.4193 45.5719 30.774C45.6839 30.9607 45.7259 31.138 45.6979 31.306C45.6792 31.4647 45.5952 31.5907 45.4459 31.684C45.2779 31.7773 45.1005 31.796 44.9139 31.74C44.7365 31.684 44.6012 31.5767 44.5079 31.418C44.3679 31.166 44.1905 30.9467 43.9759 30.76C43.7612 30.5733 43.5045 30.424 43.2059 30.312C42.9165 30.2 42.5712 30.144 42.1699 30.144C41.4605 30.1347 40.8772 30.2747 40.4199 30.564C39.9625 30.844 39.7339 31.2687 39.7339 31.838C39.7339 32.1367 39.8085 32.4167 39.9579 32.678C40.1165 32.93 40.3872 33.154 40.7699 33.35C41.1619 33.5367 41.7079 33.672 42.4079 33.756C43.5372 33.8867 44.4005 34.232 44.9979 34.792C45.5952 35.3427 45.8939 36.0707 45.8939 36.976C45.8939 37.4987 45.7912 37.956 45.5859 38.348C45.3899 38.74 45.1145 39.0713 44.7599 39.342C44.4052 39.6033 43.9945 39.804 43.5279 39.944C43.0705 40.0747 42.5899 40.14 42.0859 40.14ZM50.8741 40C50.3981 40 49.9688 39.8833 49.5861 39.65C49.2035 39.4073 48.9048 39.0853 48.6901 38.684C48.4755 38.2733 48.3681 37.8067 48.3681 37.284V30.55C48.3681 30.3633 48.4241 30.2093 48.5361 30.088C48.6575 29.9667 48.8115 29.906 48.9981 29.906C49.1848 29.906 49.3388 29.9667 49.4601 30.088C49.5815 30.2093 49.6421 30.3633 49.6421 30.55V37.284C49.6421 37.704 49.7588 38.0493 49.9921 38.32C50.2255 38.5907 50.5195 38.726 50.8741 38.726H51.3081C51.4668 38.726 51.5975 38.7867 51.7001 38.908C51.8121 39.0293 51.8681 39.1833 51.8681 39.37C51.8681 39.5567 51.7981 39.7107 51.6581 39.832C51.5275 39.944 51.3548 40 51.1401 40H50.8741ZM47.6121 33.728C47.4441 33.728 47.3041 33.6767 47.1921 33.574C47.0801 33.4713 47.0241 33.3407 47.0241 33.182C47.0241 33.014 47.0801 32.8787 47.1921 32.776C47.3041 32.6733 47.4441 32.622 47.6121 32.622H50.9861C51.1541 32.622 51.2941 32.6733 51.4061 32.776C51.5181 32.8787 51.5741 33.014 51.5741 33.182C51.5741 33.3407 51.5181 33.4713 51.4061 33.574C51.2941 33.6767 51.1541 33.728 50.9861 33.728H47.6121ZM56.8853 40.056C56.1853 40.056 55.5599 39.888 55.0093 39.552C54.4586 39.216 54.0246 38.754 53.7073 38.166C53.3899 37.578 53.2313 36.9153 53.2313 36.178C53.2313 35.4313 53.3993 34.7687 53.7353 34.19C54.0806 33.602 54.5426 33.14 55.1213 32.804C55.7093 32.4587 56.3673 32.286 57.0953 32.286C57.8326 32.286 58.4906 32.4587 59.0693 32.804C59.6479 33.14 60.1053 33.602 60.4413 34.19C60.7866 34.778 60.9639 35.4407 60.9733 36.178L60.4693 36.304C60.4693 37.0133 60.3106 37.6527 59.9933 38.222C59.6759 38.7913 59.2466 39.2393 58.7053 39.566C58.1733 39.8927 57.5666 40.056 56.8853 40.056ZM57.0953 38.908C57.5993 38.908 58.0473 38.7913 58.4393 38.558C58.8313 38.3153 59.1393 37.9887 59.3633 37.578C59.5966 37.158 59.7133 36.6913 59.7133 36.178C59.7133 35.6553 59.5966 35.1887 59.3633 34.778C59.1393 34.358 58.8313 34.0313 58.4393 33.798C58.0473 33.5553 57.5993 33.434 57.0953 33.434C56.6099 33.434 56.1666 33.5553 55.7653 33.798C55.3639 34.0313 55.0466 34.358 54.8133 34.778C54.5893 35.1887 54.4773 35.6553 54.4773 36.178C54.4773 36.6913 54.5893 37.158 54.8133 37.578C55.0466 37.9887 55.3639 38.3153 55.7653 38.558C56.1666 38.7913 56.6099 38.908 57.0953 38.908ZM60.3153 40.014C60.1286 40.014 59.9746 39.9533 59.8533 39.832C59.7319 39.7107 59.6713 39.5567 59.6713 39.37V37.13L59.9373 35.786L60.9733 36.178V39.37C60.9733 39.5567 60.9079 39.7107 60.7773 39.832C60.6559 39.9533 60.5019 40.014 60.3153 40.014ZM64.4282 43.346C64.3442 43.346 64.2462 43.3227 64.1342 43.276C63.7609 43.108 63.6582 42.842 63.8262 42.478L68.1942 32.706C68.3622 32.3513 68.6282 32.2487 68.9922 32.398C69.3749 32.5567 69.4822 32.8227 69.3142 33.196L64.9322 42.954C64.8202 43.2153 64.6522 43.346 64.4282 43.346ZM66.0522 39.72C65.8842 39.7947 65.7302 39.804 65.5902 39.748C65.4502 39.692 65.3382 39.5847 65.2542 39.426L62.0762 33.182C61.9922 33.0233 61.9782 32.8693 62.0342 32.72C62.0996 32.5707 62.2162 32.4633 62.3842 32.398C62.5429 32.3233 62.6922 32.314 62.8322 32.37C62.9816 32.4167 63.0936 32.524 63.1682 32.692L66.2342 38.922C66.3276 39.09 66.3602 39.2487 66.3322 39.398C66.3042 39.538 66.2109 39.6453 66.0522 39.72ZM78.3437 40.14C77.7463 40.14 77.1817 40.0513 76.6497 39.874C76.127 39.6873 75.6697 39.4307 75.2777 39.104C74.8857 38.7773 74.5963 38.3947 74.4097 37.956C74.3163 37.7787 74.3117 37.6153 74.3957 37.466C74.489 37.3167 74.6383 37.2187 74.8437 37.172C75.0023 37.1347 75.1563 37.158 75.3057 37.242C75.455 37.3167 75.567 37.4333 75.6417 37.592C75.763 37.844 75.9543 38.0727 76.2157 38.278C76.477 38.474 76.7897 38.6327 77.1537 38.754C77.527 38.8753 77.9237 38.936 78.3437 38.936C78.8103 38.936 79.2303 38.8613 79.6037 38.712C79.9863 38.5627 80.2897 38.348 80.5137 38.068C80.747 37.7787 80.8637 37.4287 80.8637 37.018C80.8637 36.4953 80.663 36.0333 80.2617 35.632C79.8603 35.2307 79.2163 34.9787 78.3297 34.876C77.2003 34.7547 76.3137 34.414 75.6697 33.854C75.0257 33.294 74.7037 32.6033 74.7037 31.782C74.7037 31.1847 74.867 30.676 75.1937 30.256C75.5203 29.8267 75.9683 29.5 76.5377 29.276C77.107 29.052 77.751 28.94 78.4697 28.94C79.011 28.94 79.4917 29.0193 79.9117 29.178C80.341 29.3367 80.7097 29.556 81.0177 29.836C81.335 30.1067 81.6057 30.4193 81.8297 30.774C81.9417 30.9607 81.9837 31.138 81.9557 31.306C81.937 31.4647 81.853 31.5907 81.7037 31.684C81.5357 31.7773 81.3583 31.796 81.1717 31.74C80.9943 31.684 80.859 31.5767 80.7657 31.418C80.6257 31.166 80.4483 30.9467 80.2337 30.76C80.019 30.5733 79.7623 30.424 79.4637 30.312C79.1743 30.2 78.829 30.144 78.4277 30.144C77.7183 30.1347 77.135 30.2747 76.6777 30.564C76.2203 30.844 75.9917 31.2687 75.9917 31.838C75.9917 32.1367 76.0663 32.4167 76.2157 32.678C76.3743 32.93 76.645 33.154 77.0277 33.35C77.4197 33.5367 77.9657 33.672 78.6657 33.756C79.795 33.8867 80.6583 34.232 81.2557 34.792C81.853 35.3427 82.1517 36.0707 82.1517 36.976C82.1517 37.4987 82.049 37.956 81.8437 38.348C81.6477 38.74 81.3723 39.0713 81.0177 39.342C80.663 39.6033 80.2523 39.804 79.7857 39.944C79.3283 40.0747 78.8477 40.14 78.3437 40.14ZM84.906 43.276C84.7193 43.276 84.5653 43.2153 84.444 43.094C84.3226 42.9727 84.262 42.8187 84.262 42.632V36.15C84.2713 35.422 84.444 34.764 84.78 34.176C85.1253 33.588 85.5873 33.126 86.166 32.79C86.7446 32.454 87.398 32.286 88.126 32.286C88.8633 32.286 89.5213 32.4587 90.1 32.804C90.688 33.14 91.15 33.602 91.486 34.19C91.8313 34.7687 92.004 35.4313 92.004 36.178C92.004 36.9153 91.8406 37.578 91.514 38.166C91.1966 38.754 90.7626 39.216 90.212 39.552C89.6613 39.888 89.0406 40.056 88.35 40.056C87.762 40.056 87.23 39.9347 86.754 39.692C86.278 39.4493 85.8766 39.1227 85.55 38.712V42.632C85.55 42.8187 85.4893 42.9727 85.368 43.094C85.256 43.2153 85.102 43.276 84.906 43.276ZM88.126 38.908C88.6206 38.908 89.064 38.7913 89.456 38.558C89.8573 38.3153 90.17 37.9887 90.394 37.578C90.6273 37.158 90.744 36.6913 90.744 36.178C90.744 35.6553 90.6273 35.1887 90.394 34.778C90.17 34.358 89.8573 34.0313 89.456 33.798C89.064 33.5553 88.6206 33.434 88.126 33.434C87.6313 33.434 87.1833 33.5553 86.782 33.798C86.39 34.0407 86.082 34.3673 85.858 34.778C85.634 35.1887 85.522 35.6553 85.522 36.178C85.522 36.6913 85.634 37.158 85.858 37.578C86.082 37.9887 86.39 38.3153 86.782 38.558C87.1833 38.7913 87.6313 38.908 88.126 38.908ZM94.959 40C94.763 40 94.6044 39.9393 94.483 39.818C94.3617 39.6967 94.301 39.5427 94.301 39.356V32.986C94.301 32.79 94.3617 32.636 94.483 32.524C94.6044 32.4027 94.763 32.342 94.959 32.342C95.1457 32.342 95.2997 32.4027 95.421 32.524C95.5424 32.636 95.603 32.79 95.603 32.986V39.356C95.603 39.5427 95.5424 39.6967 95.421 39.818C95.2997 39.9393 95.1457 40 94.959 40ZM94.945 31.012C94.7117 31.012 94.511 30.928 94.343 30.76C94.175 30.592 94.091 30.3867 94.091 30.144C94.091 29.9013 94.175 29.7007 94.343 29.542C94.5204 29.374 94.7257 29.29 94.959 29.29C95.183 29.29 95.379 29.374 95.547 29.542C95.7244 29.7007 95.813 29.9013 95.813 30.144C95.813 30.3867 95.729 30.592 95.561 30.76C95.393 30.928 95.1877 31.012 94.945 31.012ZM101.733 40.056C100.996 40.056 100.338 39.888 99.7593 39.552C99.1806 39.2067 98.7233 38.7447 98.3873 38.166C98.0606 37.578 97.8973 36.9153 97.8973 36.178C97.8973 35.422 98.056 34.75 98.3733 34.162C98.7 33.574 99.1433 33.1167 99.7033 32.79C100.263 32.454 100.912 32.286 101.649 32.286C102.2 32.286 102.709 32.3933 103.175 32.608C103.642 32.8227 104.057 33.1447 104.421 33.574C104.543 33.7047 104.585 33.8447 104.547 33.994C104.519 34.1433 104.426 34.274 104.267 34.386C104.155 34.47 104.025 34.498 103.875 34.47C103.726 34.442 103.595 34.3627 103.483 34.232C102.989 33.7 102.377 33.434 101.649 33.434C101.155 33.434 100.716 33.5507 100.333 33.784C99.96 34.0173 99.666 34.3393 99.4513 34.75C99.246 35.1513 99.1433 35.6273 99.1433 36.178C99.1433 36.7007 99.2506 37.1673 99.4653 37.578C99.6893 37.9887 99.9973 38.3153 100.389 38.558C100.781 38.7913 101.229 38.908 101.733 38.908C102.079 38.908 102.387 38.866 102.657 38.782C102.928 38.698 103.171 38.5627 103.385 38.376C103.516 38.264 103.651 38.2033 103.791 38.194C103.941 38.1847 104.071 38.2267 104.183 38.32C104.323 38.4413 104.403 38.5767 104.421 38.726C104.44 38.8753 104.389 39.006 104.267 39.118C103.595 39.7433 102.751 40.056 101.733 40.056ZM108.014 43.346C107.93 43.346 107.832 43.3227 107.72 43.276C107.347 43.108 107.244 42.842 107.412 42.478L111.78 32.706C111.948 32.3513 112.214 32.2487 112.578 32.398C112.961 32.5567 113.068 32.8227 112.9 33.196L108.518 42.954C108.406 43.2153 108.238 43.346 108.014 43.346ZM109.638 39.72C109.47 39.7947 109.316 39.804 109.176 39.748C109.036 39.692 108.924 39.5847 108.84 39.426L105.662 33.182C105.578 33.0233 105.564 32.8693 105.62 32.72C105.685 32.5707 105.802 32.4633 105.97 32.398C106.129 32.3233 106.278 32.314 106.418 32.37C106.567 32.4167 106.679 32.524 106.754 32.692L109.82 38.922C109.913 39.09 109.946 39.2487 109.918 39.398C109.89 39.538 109.797 39.6453 109.638 39.72Z" fill="#F4D5D8"/>
<path d="M54.8681 23H50.4721V13.928H50.2201L48.5681 23H44.0601L42.4921 13.928H42.2121V23H37.8721L38.4601 5.612H44.7601L46.3281 15.02H46.5521L48.0641 5.612H54.2801L54.8681 23ZM60.9894 7.432C62.0721 6.032 63.8361 5.332 66.2814 5.332C68.7267 5.332 70.4721 6.02267 71.5174 7.404C72.5814 8.78533 73.1134 11.0347 73.1134 14.152C73.1134 17.2507 72.5721 19.5467 71.4894 21.04C70.4067 22.5333 68.6521 23.28 66.2254 23.28C63.7987 23.28 62.0534 22.5427 60.9894 21.068C59.9254 19.5933 59.3934 17.3067 59.3934 14.208C59.3934 11.0907 59.9254 8.832 60.9894 7.432ZM68.2974 14.152C68.2974 12.4347 68.1574 11.2773 67.8774 10.68C67.6161 10.064 67.0654 9.756 66.2254 9.756C65.4041 9.756 64.8721 10.064 64.6294 10.68C64.3867 11.2773 64.2654 12.4253 64.2654 14.124V14.796C64.2654 16.6067 64.3961 17.8013 64.6574 18.38C64.9374 18.94 65.4881 19.22 66.3094 19.22C67.1494 19.22 67.6907 18.9493 67.9334 18.408C68.1761 17.8667 68.2974 16.7467 68.2974 15.048V14.152ZM90.5038 23H85.9118L82.2998 14.908H82.0758V23H77.8198V5.612H82.5518L85.9958 13.956H86.2198V5.612H90.5038V23ZM108.088 23H102.796L100.696 16.448H100.416V23H95.7682V5.612H100.416V12.892H100.696L103.216 5.612H108.368L104.98 14.6L108.088 23ZM121.566 23H112.158V5.612H121.846L121.566 9.896H116.946V12.5H120.95V16.196H116.946V19.08H121.846L121.566 23ZM138.038 5.612L133.894 17.624V23H129.134V17.624L125.046 5.612H130.31L131.57 11.268H131.794L132.998 5.612H138.038ZM162.982 17.988C162.982 21.3293 161.19 23 157.606 23H150.746V5.612H157.466C159.239 5.612 160.555 5.976 161.414 6.704C162.272 7.41333 162.702 8.552 162.702 10.12C162.702 11.688 162.058 12.8827 160.77 13.704V13.872C162.244 14.4507 162.982 15.8227 162.982 17.988ZM156.486 19.892C157.046 19.892 157.419 19.7707 157.606 19.528C157.811 19.2667 157.914 18.744 157.914 17.96C157.914 17.1573 157.811 16.5973 157.606 16.28C157.4 15.944 157.027 15.776 156.486 15.776H155.59V19.892H156.486ZM156.514 13.06C156.943 13.06 157.242 12.9293 157.41 12.668C157.578 12.4067 157.662 11.9493 157.662 11.296C157.662 10.624 157.568 10.1573 157.382 9.896C157.214 9.616 156.915 9.476 156.486 9.476H155.59V13.06H156.514ZM172.309 17.288C172.309 17.8667 172.43 18.296 172.673 18.576C172.916 18.856 173.308 18.996 173.849 18.996C174.409 18.996 174.792 18.8653 174.997 18.604C175.221 18.324 175.333 17.876 175.333 17.26V5.612H180.149V17.54C180.149 19.5373 179.598 20.9933 178.497 21.908C177.414 22.8227 175.809 23.28 173.681 23.28C171.572 23.28 169.994 22.832 168.949 21.936C167.922 21.0213 167.409 19.5747 167.409 17.596V5.612H172.309V17.288ZM184.628 10.848C184.628 9.18667 185.113 7.852 186.084 6.844C187.055 5.836 188.38 5.332 190.06 5.332C191.759 5.332 193.495 5.5 195.268 5.836L194.708 10.316C192.86 9.88667 191.591 9.672 190.9 9.672C190.023 9.672 189.584 10.0267 189.584 10.736C189.584 11.016 189.789 11.2867 190.2 11.548C190.629 11.8093 191.143 12.0893 191.74 12.388C192.337 12.668 192.935 13.0133 193.532 13.424C194.129 13.816 194.633 14.3853 195.044 15.132C195.473 15.8787 195.688 16.7373 195.688 17.708C195.688 19.4813 195.212 20.8533 194.26 21.824C193.308 22.7947 191.955 23.28 190.2 23.28C188.464 23.28 186.765 23.0093 185.104 22.468L185.412 18.296C187.409 18.8747 188.8 19.164 189.584 19.164C190.368 19.164 190.76 18.8187 190.76 18.128C190.76 17.7733 190.545 17.4467 190.116 17.148C189.705 16.8493 189.201 16.5507 188.604 16.252C188.007 15.9533 187.4 15.608 186.784 15.216C186.187 14.824 185.673 14.2547 185.244 13.508C184.833 12.7613 184.628 11.8747 184.628 10.848ZM205.201 23H200.441V5.612H205.201V23ZM223.438 23H218.846L215.234 14.908H215.01V23H210.754V5.612H215.486L218.93 13.956H219.154V5.612H223.438V23ZM238.111 23H228.703V5.612H238.391L238.111 9.896H233.491V12.5H237.495V16.196H233.491V19.08H238.391L238.111 23ZM242.039 10.848C242.039 9.18667 242.524 7.852 243.495 6.844C244.466 5.836 245.791 5.332 247.471 5.332C249.17 5.332 250.906 5.5 252.679 5.836L252.119 10.316C250.271 9.88667 249.002 9.672 248.311 9.672C247.434 9.672 246.995 10.0267 246.995 10.736C246.995 11.016 247.2 11.2867 247.611 11.548C248.04 11.8093 248.554 12.0893 249.151 12.388C249.748 12.668 250.346 13.0133 250.943 13.424C251.54 13.816 252.044 14.3853 252.455 15.132C252.884 15.8787 253.099 16.7373 253.099 17.708C253.099 19.4813 252.623 20.8533 251.671 21.824C250.719 22.7947 249.366 23.28 247.611 23.28C245.875 23.28 244.176 23.0093 242.515 22.468L242.823 18.296C244.82 18.8747 246.211 19.164 246.995 19.164C247.779 19.164 248.171 18.8187 248.171 18.128C248.171 17.7733 247.956 17.4467 247.527 17.148C247.116 16.8493 246.612 16.5507 246.015 16.252C245.418 15.9533 244.811 15.608 244.195 15.216C243.598 14.824 243.084 14.2547 242.655 13.508C242.244 12.7613 242.039 11.8747 242.039 10.848ZM256.788 10.848C256.788 9.18667 257.273 7.852 258.244 6.844C259.215 5.836 260.54 5.332 262.22 5.332C263.919 5.332 265.655 5.5 267.428 5.836L266.868 10.316C265.02 9.88667 263.751 9.672 263.06 9.672C262.183 9.672 261.744 10.0267 261.744 10.736C261.744 11.016 261.949 11.2867 262.36 11.548C262.789 11.8093 263.303 12.0893 263.9 12.388C264.497 12.668 265.095 13.0133 265.692 13.424C266.289 13.816 266.793 14.3853 267.204 15.132C267.633 15.8787 267.848 16.7373 267.848 17.708C267.848 19.4813 267.372 20.8533 266.42 21.824C265.468 22.7947 264.115 23.28 262.36 23.28C260.624 23.28 258.925 23.0093 257.264 22.468L257.572 18.296C259.569 18.8747 260.96 19.164 261.744 19.164C262.528 19.164 262.92 18.8187 262.92 18.128C262.92 17.7733 262.705 17.4467 262.276 17.148C261.865 16.8493 261.361 16.5507 260.764 16.252C260.167 15.9533 259.56 15.608 258.944 15.216C258.347 14.824 257.833 14.2547 257.404 13.508C256.993 12.7613 256.788 11.8747 256.788 10.848Z" fill="#EE5C67"/>
</svg>
