<svg width="215" height="42" viewBox="0 0 215 42" fill="none" xmlns="http://www.w3.org/2000/svg">
<rect width="215" height="42" rx="21" fill="#EE5C67"/>
<path d="M115.943 21.1518C115.943 21.9624 116.034 22.5544 116.215 22.9278C116.397 23.2904 116.701 23.4718 117.127 23.4718C117.554 23.4718 118.263 23.3544 119.255 23.1198L119.767 25.6638C118.722 25.9944 117.714 26.1598 116.743 26.1598C115.261 26.1598 114.178 25.7384 113.495 24.8958C112.823 24.0424 112.487 22.7784 112.487 21.1038C112.487 19.4184 112.839 18.1331 113.543 17.2478C114.247 16.3518 115.394 15.9038 116.983 15.9038C117.911 15.9038 118.839 16.0851 119.767 16.4478L119.239 19.2958C118.183 18.9864 117.458 18.8318 117.063 18.8318C116.679 18.8318 116.397 19.0184 116.215 19.3918C116.034 19.7544 115.943 20.3411 115.943 21.1518ZM131.333 25.9998H127.957V22.4958H126.229V25.9998H122.805V16.0638H126.229V19.7758H127.957V16.0638H131.333V25.9998ZM141.513 25.9998H135.177V16.0638H141.737L141.513 18.7038H138.601V19.9038H141.145V22.2078H138.601V23.5678H141.737L141.513 25.9998ZM148.248 21.1518C148.248 21.9624 148.339 22.5544 148.52 22.9278C148.702 23.2904 149.006 23.4718 149.432 23.4718C149.859 23.4718 150.568 23.3544 151.56 23.1198L152.072 25.6638C151.027 25.9944 150.019 26.1598 149.048 26.1598C147.566 26.1598 146.483 25.7384 145.8 24.8958C145.128 24.0424 144.792 22.7784 144.792 21.1038C144.792 19.4184 145.144 18.1331 145.848 17.2478C146.552 16.3518 147.699 15.9038 149.288 15.9038C150.216 15.9038 151.144 16.0851 152.072 16.4478L151.544 19.2958C150.488 18.9864 149.763 18.8318 149.368 18.8318C148.984 18.8318 148.702 19.0184 148.52 19.3918C148.339 19.7544 148.248 20.3411 148.248 21.1518ZM163.302 25.9998H159.542L158.534 22.7038H158.358V25.9998H155.11V16.0638H158.358V19.9998H158.534L159.798 16.0638H163.462L161.398 21.2318L163.302 25.9998ZM166.178 20.9758C166.178 19.1944 166.53 17.9038 167.234 17.1038C167.948 16.3038 169.116 15.9038 170.738 15.9038C172.37 15.9038 173.532 16.2984 174.226 17.0878C174.93 17.8771 175.282 19.1624 175.282 20.9438C175.282 22.7144 174.919 24.0264 174.194 24.8798C173.479 25.7331 172.316 26.1598 170.706 26.1598C169.106 26.1598 167.948 25.7384 167.234 24.8958C166.53 24.0531 166.178 22.7464 166.178 20.9758ZM171.634 19.0718C171.495 18.7944 171.196 18.6558 170.738 18.6558C170.279 18.6558 169.986 18.7891 169.858 19.0558C169.73 19.3224 169.666 19.8931 169.666 20.7678V21.4718C169.666 22.3678 169.735 22.9491 169.874 23.2158C170.012 23.4824 170.316 23.6158 170.786 23.6158C171.255 23.6158 171.548 23.4878 171.666 23.2318C171.783 22.9758 171.842 22.4051 171.842 21.5198V20.7838C171.842 19.9091 171.772 19.3384 171.634 19.0718ZM182.328 22.4798C182.328 23.0558 182.584 23.3438 183.096 23.3438C183.618 23.3438 183.88 23.0504 183.88 22.4638V16.0638H187.304V22.6718C187.304 23.8451 186.936 24.7198 186.2 25.2958C185.464 25.8718 184.408 26.1598 183.032 26.1598C180.237 26.1598 178.84 25.0078 178.84 22.7038V16.0638H182.328V22.4798ZM198.124 18.7678H196.012V25.9998H192.604V18.7678H190.38L190.524 16.0638H198.316L198.124 18.7678Z" fill="#F4D5D8"/>
</svg>
